<svg xmlns="http://www.w3.org/2000/svg" width="256" height="256" viewBox="0 0 256 256">
  <defs>
    <linearGradient id="g" x1="0" y1="0" x2="1" y2="1">
      <stop offset="0" stop-color="#2fbf71"/>
      <stop offset="1" stop-color="#146b3a"/>
    </linearGradient>
    <filter id="s" x="-20%" y="-20%" width="140%" height="140%">
      <feDropShadow dx="0" dy="4" stdDeviation="6" flood-color="#000" flood-opacity="0.25"/>
    </filter>
  </defs>
  <rect width="256" height="256" rx="56" fill="url(#g)"/>
  <g filter="url(#s)">
    <!-- cute apple -->
    <path d="M169 118c23 0 41 19 41 43 0 36-29 65-65 65-18 0-32-7-42-20-9 13-23 20-41 20-36 0-65-29-65-65 0-24 18-43 41-43 12 0 22 5 30 13 8-8 18-13 30-13 12 0 22 5 30 13 8-8 18-13 31-13z" fill="#e8f5ec" opacity="0.18"/>
    <path d="M128 70c-24 0-44 12-55 31-9 16-11 36-6 54 6 24 25 51 61 51s55-27 61-51c5-18 3-38-6-54-11-19-31-31-55-31z" fill="#1eae62"/>
    <path d="M106 60c8-12 22-18 36-17 3 11-0 23-8 32-8 9-20 14-32 13-3-10 0-21 4-28z" fill="#2fbf71"/>
    <path d="M150 42c-8 1-17 6-23 13-3-11 0-25 10-33 9-7 22-8 33-3-4 11-11 20-20 23z" fill="#146b3a"/>
    <circle cx="98" cy="110" r="10" fill="#fff" opacity=".85"/>
    <circle cx="158" cy="110" r="10" fill="#fff" opacity=".85"/>
  </g>
</svg>

